<?xml version="1.0" standalone="no"?>
<!DOCTYPE svg PUBLIC "-//W3C//DTD SVG 20010904//EN"
 "http://www.w3.org/TR/2001/REC-SVG-20010904/DTD/svg10.dtd">
<svg version="1.0" xmlns="http://www.w3.org/2000/svg"
 width="256.000000pt" height="256.000000pt" viewBox="0 0 256.000000 256.000000"
 preserveAspectRatio="xMidYMid meet">
<metadata>
Created by potrace 1.14, written by Peter Selinger 2001-2017
</metadata>
<g transform="translate(0.000000,256.000000) scale(0.100000,-0.100000)"
fill="#000000" stroke="none">
<path d="M1580 2535 c-214 -44 -417 -190 -527 -380 -115 -199 -139 -450 -63
-666 11 -31 20 -58 20 -60 0 -3 -51 -4 -112 -4 -193 0 -315 -25 -465 -95 -106
-49 -165 -90 -236 -163 -242 -249 -245 -601 -6 -847 24 -25 43 -49 41 -53 -1
-5 1 -6 6 -3 4 3 21 -6 37 -20 15 -13 31 -24 35 -24 3 0 17 -10 30 -23 14 -12
26 -21 27 -20 8 7 32 -11 26 -20 -3 -5 -1 -7 4 -4 14 9 73 -12 73 -25 0 -5 4
-7 9 -3 6 3 26 -4 46 -15 20 -11 33 -15 30 -9 -6 8 -2 8 13 0 11 -6 30 -11 42
-11 12 0 19 -4 16 -8 -3 -5 8 -6 25 -4 25 4 28 2 23 -14 -4 -13 -3 -15 3 -6 8
10 71 12 103 2 12 -3 188 2 220 6 67 10 80 13 91 20 8 5 9 3 4 -7 -6 -11 -5
-12 6 -1 7 6 17 12 22 12 4 0 5 -6 2 -12 -4 -7 1 -4 9 6 9 11 16 17 16 13 0
-3 20 2 45 13 25 11 45 17 45 14 0 -2 10 1 23 8 12 7 25 11 30 10 4 -1 7 2 7
7 0 6 9 8 20 6 11 -2 18 0 16 4 -3 4 6 14 19 21 20 11 27 11 42 -1 17 -13 17
-12 4 4 -13 16 -12 19 7 24 12 3 22 10 22 15 0 6 7 7 16 4 8 -3 12 -2 9 4 -3
5 7 17 22 27 15 10 49 41 76 68 27 28 46 43 42 35 -5 -9 -4 -12 1 -7 5 5 10
13 10 18 1 5 2 12 3 17 0 4 12 19 25 34 14 14 22 29 18 34 -4 4 2 4 12 0 16
-5 17 -4 6 9 -10 12 -9 16 4 21 10 4 15 13 11 21 -3 11 -1 13 10 10 8 -4 17
-1 21 5 4 6 3 8 -4 4 -6 -3 -13 -2 -17 4 -3 5 -2 10 2 10 5 0 9 9 10 21 1 12
10 28 20 36 10 8 12 12 6 8 -8 -4 -13 0 -13 10 0 9 4 14 8 11 5 -3 7 11 5 31
-2 28 0 34 9 25 7 -7 17 -12 22 -12 6 0 1 7 -11 15 -23 16 -24 52 -2 47 9 -2
8 2 -4 15 -15 17 -15 21 -1 41 11 17 12 22 2 20 -7 -2 -14 8 -15 22 -2 22 -2
23 6 5 9 -19 10 -19 10 -1 1 10 -7 24 -16 31 -14 11 -15 16 -5 28 10 12 10 16
0 20 -10 4 -10 6 0 6 6 1 12 5 12 11 0 5 -8 7 -17 4 -15 -5 -16 -4 -3 5 11 8
18 6 28 -7 12 -16 14 -16 23 1 8 14 14 16 25 6 10 -8 14 -8 14 0 0 6 5 11 11
11 8 0 8 -5 -1 -15 -9 -11 -16 -12 -25 -5 -9 8 -14 6 -19 -5 -4 -12 3 -15 32
-15 21 0 43 -5 50 -12 8 -8 15 -8 27 2 13 11 19 10 34 -4 13 -12 21 -14 26 -6
3 6 3 10 -2 9 -20 -3 -27 2 -14 10 10 6 25 4 43 -5 21 -11 28 -11 26 -2 -2 7
6 12 17 13 11 0 20 -5 20 -12 0 -6 3 -14 7 -18 8 -9 5 16 -5 31 -4 7 0 18 9
25 13 11 15 10 12 -6 -2 -12 3 -19 19 -20 14 -1 19 3 16 12 -3 7 -10 10 -16 6
-6 -4 -8 0 -4 10 4 12 1 15 -14 12 -11 -2 -17 0 -14 6 4 5 1 9 -5 9 -7 0 -9
-7 -6 -16 3 -8 2 -13 -3 -10 -4 3 -16 -3 -26 -14 -10 -11 -21 -20 -25 -20 -7
0 -18 30 -18 47 0 3 -6 10 -14 15 -10 8 -10 9 2 5 8 -2 14 -10 12 -17 -2 -7 3
-10 12 -7 10 4 13 1 9 -9 -4 -10 0 -12 11 -8 9 3 14 10 11 15 -3 4 8 15 24 24
33 17 55 20 31 5 -12 -8 -10 -10 8 -10 13 0 21 3 18 8 -2 4 2 16 10 27 8 10
14 14 14 8 0 -6 8 -10 18 -8 9 2 19 4 22 4 3 1 -1 5 -9 10 -7 5 -12 13 -10 19
2 6 13 -1 23 -16 11 -14 13 -22 6 -17 -8 5 -11 4 -6 -3 4 -7 -1 -10 -13 -7
-15 3 -19 -1 -15 -13 5 -15 4 -15 -9 1 -16 19 -25 13 -22 -13 1 -8 3 -21 3
-29 2 -10 5 -11 15 -2 8 6 18 7 22 3 5 -4 5 -2 2 5 -10 17 3 42 19 36 8 -3 14
0 14 7 0 6 5 8 10 5 6 -4 8 -10 6 -14 -3 -4 1 -8 9 -8 10 0 6 9 -11 30 -13 16
-22 33 -18 38 3 5 0 9 -6 9 -6 0 -8 5 -5 11 5 6 12 4 20 -8 7 -10 11 -21 9
-24 -2 -4 6 -15 18 -25 12 -11 18 -14 15 -8 -7 13 19 27 33 19 5 -3 12 0 16 6
4 8 3 9 -4 5 -11 -7 -17 8 -12 29 1 6 3 16 3 23 0 13 10 16 20 6 3 -4 2 -15
-4 -25 -14 -28 -4 -23 15 6 10 15 12 24 5 23 -6 -2 -14 3 -17 11 -2 8 0 11 5
8 12 -8 39 10 30 20 -5 4 -12 1 -17 -7 -6 -8 -10 -10 -10 -5 0 6 6 17 13 24
10 11 10 13 0 7 -8 -5 -13 -1 -13 9 0 9 5 13 10 10 6 -3 13 2 17 12 4 10 18
30 32 45 38 40 43 47 84 113 142 231 156 526 38 765 -109 221 -300 374 -536
430 -87 20 -259 23 -345 5z m694 -1408 c-4 -7 -12 -18 -18 -26 -5 -7 -12 -20
-13 -30 -2 -9 -5 -22 -7 -29 -3 -17 -27 -32 -38 -26 -5 3 -6 10 -2 15 3 5 1
16 -5 23 -8 10 -8 16 3 25 10 8 16 9 21 1 3 -5 11 -10 17 -10 6 0 3 10 -8 22
-10 12 -14 18 -8 15 7 -4 15 1 18 10 6 15 8 15 16 3 8 -12 10 -10 10 8 0 13 4
20 10 17 6 -4 7 -12 4 -18z m-193 -120 c-10 -9 -11 -8 -5 6 3 10 9 15 12 12 3
-3 0 -11 -7 -18z m-76 -26 c-3 -6 -11 -11 -16 -11 -5 0 -4 6 3 14 14 16 24 13
13 -3z m115 -21 c0 -5 -4 -10 -10 -10 -5 0 -10 5 -10 10 0 6 5 10 10 10 6 0
10 -4 10 -10z m-179 -20 c15 -12 17 -18 8 -14 -10 3 -20 0 -24 -5 -3 -6 -11
-9 -16 -5 -6 4 -6 11 2 20 7 9 8 14 1 14 -12 0 -26 -19 -27 -35 -1 -11 -21 -9
-45 5 -13 8 -13 10 3 11 33 3 36 4 49 17 16 16 22 15 49 -8z"/>
<path d="M2196 1071 c-4 -5 -1 -13 5 -16 5 -4 8 -13 5 -21 -8 -21 2 -17 13 5
8 14 7 22 -3 30 -9 8 -16 8 -20 2z"/>
<path d="M2328 1169 c-20 -11 -24 -29 -6 -29 6 0 8 3 5 7 -4 3 1 12 11 19 20
16 14 18 -10 3z"/>
<path d="M2370 1139 c0 -5 5 -7 10 -4 6 3 10 8 10 11 0 2 -4 4 -10 4 -5 0 -10
-5 -10 -11z"/>
<path d="M2330 1126 c0 -2 7 -7 16 -10 8 -3 12 -2 9 4 -6 10 -25 14 -25 6z"/>
<path d="M2323 1103 c-7 -2 -13 -8 -13 -13 0 -13 29 -20 36 -8 5 7 2 8 -6 3
-10 -6 -12 -4 -7 8 3 10 5 17 4 16 -1 0 -8 -3 -14 -6z"/>
<path d="M2291 1052 c-7 -14 -6 -19 4 -19 7 0 11 7 7 15 -4 11 -1 13 8 7 9 -5
11 -4 6 3 -10 16 -14 15 -25 -6z"/>
<path d="M2228 988 c-7 -17 15 -19 29 -3 4 4 3 5 -4 2 -6 -4 -13 -2 -15 5 -3
8 -6 6 -10 -4z"/>
<path d="M2150 962 c0 -4 10 -9 22 -9 18 -2 20 0 8 7 -18 12 -30 13 -30 2z"/>
<path d="M2134 915 c3 -23 12 -26 13 -5 1 11 -2 20 -7 20 -4 0 -7 -7 -6 -15z"/>
<path d="M1744 912 c4 -6 2 -13 -4 -17 -5 -3 -10 -11 -10 -18 0 -6 6 -2 14 9
8 10 18 16 22 11 4 -4 2 -7 -4 -7 -17 0 -15 -17 2 -23 11 -4 13 -1 9 10 -5 12
-2 15 10 10 28 -11 19 2 -14 19 -17 8 -28 11 -25 6z"/>
<path d="M1826 886 c10 -8 21 -12 24 -10 5 6 -21 24 -34 24 -6 0 -1 -6 10 -14z"/>
<path d="M1876 875 c-11 -8 -15 -15 -9 -15 7 0 15 5 18 10 4 6 11 8 16 5 5 -4
9 -1 9 4 0 15 -11 13 -34 -4z"/>
<path d="M1790 860 c0 -5 5 -10 11 -10 5 0 7 5 4 10 -3 6 -8 10 -11 10 -2 0
-4 -4 -4 -10z"/>
<path d="M2010 865 c0 -7 30 -13 34 -7 3 4 -4 9 -15 9 -10 1 -19 0 -19 -2z"/>
<path d="M1773 835 c0 -8 4 -12 9 -9 5 3 6 10 3 15 -9 13 -12 11 -12 -6z"/>
<path d="M1571 324 c0 -11 3 -14 6 -6 3 7 2 16 -1 19 -3 4 -6 -2 -5 -13z"/>
<path d="M1359 153 c-13 -16 -12 -17 4 -4 16 13 21 21 13 21 -2 0 -10 -8 -17
-17z"/>
</g>
</svg>
